<svg width="96" height="96" viewBox="0 0 96 96" fill="none" xmlns="http://www.w3.org/2000/svg">
<rect width="96" height="96" fill="white"/>
<path d="M48.4708 63.9252L48.4709 48.1509L34.8108 40.2642L34.8107 56.0385L48.4708 63.9252Z" fill="#D4D4D4"/>
<path d="M34.8107 56.0385L34.8108 40.2642L21.1507 32.3775L21.1505 48.1519L34.8107 56.0385Z" fill="#D4D4D4"/>
<path d="M34.8107 71.8119L34.8107 56.0385L21.1505 48.1519L21.1505 63.9253L34.8107 71.8119Z" fill="#D4D4D4"/>
<path d="M48.4708 79.6986L48.4708 63.9252L34.8107 56.0385L34.8107 71.8119L48.4708 79.6986Z" fill="#D4D4D4"/>
<path d="M7.49053 24.4908L7.49041 40.2652L21.1505 48.1519L21.1507 32.3775L7.49053 24.4908Z" fill="#D4D4D4"/>
<path d="M7.49041 40.2652L7.4904 56.0386L21.1505 63.9253L21.1505 48.1519L7.49041 40.2652Z" fill="#D4D4D4"/>
<path d="M7.49052 71.8117L21.1507 79.6984L21.1505 63.9253L7.4904 56.0386L7.49052 71.8117Z" fill="#D4D4D4"/>
<path d="M21.1507 79.6984L34.8108 87.585L34.8107 71.8119L21.1505 63.9253L21.1507 79.6984Z" fill="#D4D4D4"/>
<path d="M34.8108 87.585L48.4709 95.4717L48.4708 79.6986L34.8107 71.8119L34.8108 87.585Z" fill="#D4D4D4"/>
<path d="M48.4708 63.9252L48.4708 79.6986L62.1309 71.812L62.1309 56.0386L48.4708 63.9252Z" fill="#D4D4D4"/>
<path d="M48.4709 48.1509L48.4708 63.9252L62.1309 56.0386L62.131 40.2642L48.4709 48.1509Z" fill="#D4D4D4"/>
<path d="M62.131 40.2642L62.1309 56.0386L75.791 48.1519L75.791 32.3776L62.131 40.2642Z" fill="#D4D4D4"/>
<path d="M62.1309 56.0386L62.1309 71.812L75.791 63.9253L75.791 48.1519L62.1309 56.0386Z" fill="#D4D4D4"/>
<path d="M48.4709 95.4717L62.131 87.5851L62.1309 71.812L48.4708 79.6986L48.4709 95.4717Z" fill="#D4D4D4"/>
<path d="M62.131 87.5851L75.7911 79.6984L75.791 63.9253L62.1309 71.812L62.131 87.5851Z" fill="#D4D4D4"/>
<path d="M75.7911 79.6984L89.4513 71.8117L89.4512 56.0386L75.791 63.9253L75.7911 79.6984Z" fill="#D4D4D4"/>
<path d="M89.4512 56.0386L89.4512 40.2652L75.791 48.1519L75.791 63.9253L89.4512 56.0386Z" fill="#D4D4D4"/>
<path d="M89.4512 40.2652L89.4513 24.4908L75.791 32.3776L75.791 48.1519L89.4512 40.2652Z" fill="#D4D4D4"/>
<path d="M89.4513 24.4908L75.7912 16.6041L62.1309 24.4909L75.791 32.3776L89.4513 24.4908Z" fill="#D4D4D4"/>
<path d="M75.7912 16.6041L62.131 8.71741L48.4708 16.6041L62.1309 24.4909L75.7912 16.6041Z" fill="#D4D4D4"/>
<path d="M48.471 0.830764L34.8108 8.71745L48.4708 16.6041L62.131 8.71741L48.471 0.830764Z" fill="#D4D4D4"/>
<path d="M34.8108 8.71745L21.1507 16.6041L34.8108 24.4908L48.4708 16.6041L34.8108 8.71745Z" fill="#D4D4D4"/>
<path d="M21.1507 16.6041L7.49053 24.4908L21.1507 32.3775L34.8108 24.4908L21.1507 16.6041Z" fill="#D4D4D4"/>
<path d="M21.1507 32.3775L34.8108 40.2642L48.4709 32.3775L34.8108 24.4908L21.1507 32.3775Z" fill="#D4D4D4"/>
<path d="M34.8108 24.4908L48.4709 32.3775L62.1309 24.4909L48.4708 16.6041L34.8108 24.4908Z" fill="#D4D4D4"/>
<path d="M62.131 40.2642L75.791 32.3776L62.1309 24.4909L48.4709 32.3775L62.131 40.2642Z" fill="#D4D4D4"/>
<path d="M34.8108 40.2642L48.4709 48.1509L62.131 40.2642L48.4709 32.3775L34.8108 40.2642Z" fill="#D4D4D4"/>
<path d="M48.4708 63.9252L48.4709 48.1509L34.8108 40.2642L34.8107 56.0385L48.4708 63.9252Z" fill="#D4D4D4"/>
<path d="M34.8107 56.0385L34.8108 40.2642L21.1507 32.3775L21.1505 48.1519L34.8107 56.0385Z" fill="#D4D4D4"/>
<path d="M34.8107 71.8119L34.8107 56.0385L21.1505 48.1519L21.1505 63.9253L34.8107 71.8119Z" fill="#D4D4D4"/>
<path d="M48.4708 79.6986L48.4708 63.9252L34.8107 56.0385L34.8107 71.8119L48.4708 79.6986Z" fill="#D4D4D4"/>
<path d="M7.49053 24.4908L7.49041 40.2652L21.1505 48.1519L21.1507 32.3775L7.49053 24.4908Z" fill="#D4D4D4"/>
<path d="M7.49041 40.2652L7.4904 56.0386L21.1505 63.9253L21.1505 48.1519L7.49041 40.2652Z" fill="#D4D4D4"/>
<path d="M7.49052 71.8117L21.1507 79.6984L21.1505 63.9253L7.4904 56.0386L7.49052 71.8117Z" fill="#D4D4D4"/>
<path d="M21.1507 79.6984L34.8108 87.585L34.8107 71.8119L21.1505 63.9253L21.1507 79.6984Z" fill="#D4D4D4"/>
<path d="M34.8108 87.585L48.4709 95.4717L48.4708 79.6986L34.8107 71.8119L34.8108 87.585Z" fill="#D4D4D4"/>
<path d="M48.4708 63.9252L48.4709 48.1509L34.8108 40.2642L34.8107 56.0385L48.4708 63.9252Z" fill="#808080"/>
<path d="M34.8107 56.0385L34.8108 40.2642L21.1507 32.3775L21.1505 48.1519L34.8107 56.0385Z" fill="#808080"/>
<path d="M34.8107 71.8119L34.8107 56.0385L21.1505 48.1519L21.1505 63.9252L34.8107 71.8119Z" fill="#808080"/>
<path d="M48.4708 79.6986L48.4708 63.9252L34.8107 56.0385L34.8107 71.8119L48.4708 79.6986Z" fill="#808080"/>
<path d="M48.4708 63.9253L48.4709 48.1509L34.8108 40.2642L34.8107 56.0386L48.4708 63.9253Z" fill="#2B2B2B"/>
<path d="M62.131 40.2642L62.1309 56.0386L75.791 48.1519L75.791 32.3776L62.131 40.2642Z" fill="#A8A8A8"/>
<path d="M62.1309 56.0386L62.1308 71.8119L75.791 63.9253L75.791 48.1519L62.1309 56.0386Z" fill="#A8A8A8"/>
<path d="M48.4708 63.9252L48.4708 79.6986L62.1308 71.8119L62.1309 56.0386L48.4708 63.9252Z" fill="#A8A8A8"/>
<path d="M48.4709 48.1509L48.4708 63.9252L62.1309 56.0386L62.131 40.2642L48.4709 48.1509Z" fill="#A8A8A8"/>
<path d="M48.4709 95.4717L62.131 87.585L62.1308 71.8119L48.4708 79.6986L48.4709 95.4717Z" fill="#A8A8A8"/>
<path d="M62.131 87.585L75.7911 79.6984L75.791 63.9253L62.1308 71.8119L62.131 87.585Z" fill="#A8A8A8"/>
<path d="M75.7911 79.6984L89.4513 71.8117L89.4512 56.0386L75.791 63.9253L75.7911 79.6984Z" fill="#A8A8A8"/>
<path d="M89.4512 56.0386L89.4512 40.2652L75.791 48.1519L75.791 63.9253L89.4512 56.0386Z" fill="#A8A8A8"/>
<path d="M89.4512 40.2652L89.4513 24.4908L75.791 32.3776L75.791 48.1519L89.4512 40.2652Z" fill="#A8A8A8"/>
<path d="M62.131 40.2642L62.1308 56.0386L75.791 48.1519L75.791 32.3776L62.131 40.2642Z" fill="#545454"/>
<path d="M62.1308 56.0386L62.1308 71.812L75.791 63.9253L75.791 48.1519L62.1308 56.0386Z" fill="#545454"/>
<path d="M48.4708 63.9252L48.4708 79.6986L62.1308 71.812L62.1308 56.0386L48.4708 63.9252Z" fill="#545454"/>
<path d="M48.4709 48.1509L48.4708 63.9252L62.1308 56.0386L62.131 40.2642L48.4709 48.1509Z" fill="#545454"/>
<path d="M48.4709 48.1509L48.4708 63.9252L62.1309 56.0386L62.1311 40.2642L48.4709 48.1509Z" fill="black"/>
<path d="M34.8108 40.2642L48.4709 48.1509L62.131 40.2642L48.4709 32.3775L34.8108 40.2642Z" fill="white"/>
<path d="M21.1507 32.3775L34.8108 40.2642L48.4709 32.3775L34.8108 24.4908L21.1507 32.3775Z" fill="white"/>
<path d="M34.8108 24.4908L48.4709 32.3775L62.1309 24.4909L48.4708 16.6041L34.8108 24.4908Z" fill="white"/>
<path d="M62.131 40.2642L75.791 32.3776L62.1309 24.4909L48.4709 32.3775L62.131 40.2642Z" fill="white"/>
<path d="M34.8108 8.71745L21.1507 16.6041L34.8108 24.4908L48.4708 16.6041L34.8108 8.71745Z" fill="white"/>
<path d="M21.1507 16.6041L7.49053 24.4908L21.1507 32.3775L34.8108 24.4908L21.1507 16.6041Z" fill="white"/>
<path d="M48.471 0.830764L34.8108 8.71745L48.4708 16.6041L62.131 8.71741L48.471 0.830764Z" fill="white"/>
<path d="M75.7912 16.6041L62.131 8.71741L48.4708 16.6041L62.1309 24.4909L75.7912 16.6041Z" fill="white"/>
<path d="M89.4513 24.4908L75.7912 16.6041L62.1309 24.4909L75.791 32.3776L89.4513 24.4908Z" fill="white"/>
<path d="M34.8108 40.2642L48.4709 48.1509L62.131 40.2642L48.4709 32.3775L34.8108 40.2642Z" fill="#A8A8A8"/>
<path d="M21.1506 32.3775L34.8108 40.2642L48.4709 32.3775L34.8108 24.4908L21.1506 32.3775Z" fill="#A8A8A8"/>
<path d="M34.8108 24.4908L48.4709 32.3775L62.1309 24.4909L48.4708 16.6042L34.8108 24.4908Z" fill="#A8A8A8"/>
<path d="M62.131 40.2642L75.791 32.3776L62.1309 24.4909L48.4709 32.3775L62.131 40.2642Z" fill="#A8A8A8"/>
<path d="M34.8108 40.2642L48.4709 48.1509L62.1311 40.2642L48.4709 32.3775L34.8108 40.2642Z" fill="#545454"/>
</svg>
